<?xml version="1.0" encoding="utf-8"?>
<!-- Generator: Adobe Illustrator 16.0.0, SVG Export Plug-In . SVG Version: 6.00 Build 0)  -->
<!DOCTYPE svg PUBLIC "-//W3C//DTD SVG 1.1//EN" "http://www.w3.org/Graphics/SVG/1.1/DTD/svg11.dtd">
<svg version="1.1" id="Layer_1" xmlns="http://www.w3.org/2000/svg" xmlns:xlink="http://www.w3.org/1999/xlink" x="0px" y="0px"
	 width="323.944px" height="323.944px" viewBox="0 0 323.944 323.944" enable-background="new 0 0 323.944 323.944"
	 xml:space="preserve">
<circle fill="#FFFFFF" stroke="#2D9900" stroke-width="16" stroke-miterlimit="10" cx="162.676" cy="162.675" r="142.958"/>
<g>
	<polyline fill="#FFFFFF" points="69.014,150.705 114.084,214.084 256.337,111.268 	"/>
	<g>
		<path fill="#2D9900" d="M56.062,158.275c15.023,21.127,30.047,42.254,45.07,63.381c4.368,6.143,13.471,10.478,20.523,5.381
			c40.409-29.206,80.817-58.412,121.226-87.619c7.009-5.065,14.019-10.132,21.027-15.197c6.612-4.779,9.816-12.952,5.381-20.523
			c-3.831-6.54-13.882-10.181-20.523-5.381c-40.409,29.206-80.817,58.412-121.227,87.619c-7.009,5.065-14.018,10.132-21.027,15.197
			c6.841,1.794,13.682,3.588,20.523,5.381c-15.023-21.126-30.047-42.253-45.07-63.379c-4.729-6.649-12.993-9.793-20.523-5.382
			C54.862,141.607,51.314,151.599,56.062,158.275L56.062,158.275z"/>
	</g>
</g>
</svg>
